<?xml version="1.0" encoding="UTF-8"?> <svg xmlns="http://www.w3.org/2000/svg" xmlns:xlink="http://www.w3.org/1999/xlink" id="Layer_1" data-name="Layer 1" viewBox="0 0 649.69 160.31"><defs><style>.cls-1{fill:none;}.cls-2{fill:#88c441;}.cls-3{fill:#3db34a;}.cls-4{fill:#039f4a;}.cls-5{opacity:0.42;}.cls-6{clip-path:url(#clip-path);}.cls-7{fill:#fff;}.cls-8{clip-path:url(#clip-path-2);}.cls-9{fill:#221f1f;}.cls-10{stroke:#000;stroke-miterlimit:10;stroke-width:0.5px;}</style><clipPath id="clip-path"><rect class="cls-1" x="121.8" y="21.33" width="9.77" height="24.37"></rect></clipPath><clipPath id="clip-path-2"><rect class="cls-1" x="103.59" y="21.33" width="9.78" height="24.37"></rect></clipPath></defs><title>kindmedicinelogo</title><path class="cls-2" d="M117.58,19.38a17.43,17.43,0,0,0-5.07-4.58c-6.16-3.69-24.93-3.8-19.69,17.36C96.11,45.48,117.46,55.91,117.58,56c0-.1-9.46-23.81,0-36.59"></path><path class="cls-3" d="M122.64,14.8a17.27,17.27,0,0,0-5.06,4.58c9.46,12.78,0,36.49,0,36.59.12-.06,21.46-10.49,24.76-23.81,5.24-21.16-13.54-21-19.7-17.36"></path><path class="cls-4" d="M117.58,19.38c-9.46,12.78,0,36.49,0,36.59h0c0-.1,9.45-23.81,0-36.59"></path><g class="cls-5"><g class="cls-6"><path class="cls-7" d="M121.79,45.7c.6-2.12,1.3-4.2,2-6.26s1.52-4.1,2.33-6.14,1.66-4,2.56-6,1.82-4,2.86-5.93c-.59,2.12-1.29,4.2-2,6.26s-1.52,4.11-2.32,6.14-1.67,4.05-2.57,6.05-1.82,4-2.86,5.92"></path></g></g><g class="cls-5"><g class="cls-8"><path class="cls-7" d="M113.36,45.7c-1-1.94-2-3.93-2.86-5.92s-1.73-4-2.56-6.05-1.59-4.07-2.32-6.14-1.44-4.14-2-6.26c1,2,2,3.93,2.86,5.93s1.74,4,2.56,6,1.6,4.08,2.33,6.14,1.43,4.14,2,6.26"></path></g></g><path class="cls-9" d="M121.08,147.59h-7a3.42,3.42,0,0,1-3.42-3.42v-77a3.42,3.42,0,0,1,3.42-3.42h7a3.42,3.42,0,0,1,3.42,3.42v77A3.42,3.42,0,0,1,121.08,147.59Z"></path><path class="cls-9" d="M158.38,147.59h-6.84a3.42,3.42,0,0,1-3.41-3.42V96.65c0-21.15,15-35,35-35s34.82,13.84,34.82,35v47.52a3.42,3.42,0,0,1-3.42,3.42h-6.83a3.42,3.42,0,0,1-3.42-3.42v-48c0-12.53-8.3-21.64-21.15-21.64-13,0-21.32,9.11-21.32,21.64v48A3.42,3.42,0,0,1,158.38,147.59Z"></path><path class="cls-9" d="M320,105.44c0,24.9-18.23,44.1-42,44.1-23.27,0-42.15-18.88-42.15-44.1,0-25.06,18.71-43.78,41.82-43.78a36.86,36.86,0,0,1,29,14.16V22.61a3.42,3.42,0,0,1,3.42-3.42h6.51A3.42,3.42,0,0,1,320,22.61ZM278,74.36c-15.62,0-28.32,13.67-28.32,31.08,0,17.74,12.7,31.41,28.32,31.41,15.3,0,28.32-14,28.32-31.41C306.32,88.19,293.46,74.36,278,74.36Z"></path><path class="cls-9" d="M89,135.3a24,24,0,0,1-5,.8c-14.51,0-4.84-32.24-27.61-39.89L85.53,66.79c2-2.22,1.21-3.83-1.61-3.83h-6c-3,0-4,.6-6,2.62L28.5,108.9V23.82c0-3.62-1-4.63-4.63-4.63H20.44c-3.83,0-4.63,1-4.63,4.63V143c0,3.62.8,4.63,4.63,4.63h3.43c3.63,0,4.63-1,4.63-4.63V124.22l17.94-17.94c25.59,1.21,9.87,41.31,36.47,41.31,4.23,0,8.47-1.21,8.47-4.23v-5.64C91.38,135.9,90.57,135.1,89,135.3Z"></path><path class="cls-4" d="M389.84,145.92h-1.52V124q0-8.49-2.54-12.51t-8-4a13.63,13.63,0,0,0-5.27,1,15.35,15.35,0,0,0-4.47,2.84,18.42,18.42,0,0,0-3.49,4.33,20.57,20.57,0,0,0-2.24,5.46v24.8h-1.52V124q0-8.56-2.5-12.55c-1.67-2.66-4.32-4-8-4a14,14,0,0,0-5.2,1,15.13,15.13,0,0,0-4.47,2.77,18.47,18.47,0,0,0-3.53,4.29,21.43,21.43,0,0,0-2.35,5.53v24.88h-1.52V106.56h1.52v10.16a20.86,20.86,0,0,1,6.56-8A14.76,14.76,0,0,1,350,106a11.23,11.23,0,0,1,8.19,3.11,13.38,13.38,0,0,1,3.8,8.34Q367.92,106,377.78,106q6.15,0,9.1,4.44t3,13.61Z"></path><path class="cls-4" d="M391.11,147.18h-4.05V124c0-5.39-.79-9.37-2.35-11.84-1.46-2.31-3.72-3.43-6.93-3.43a12.3,12.3,0,0,0-4.78.93,14,14,0,0,0-4.11,2.61,17.34,17.34,0,0,0-3.26,4,20.17,20.17,0,0,0-2.06,5v25.9h-4V124c0-5.44-.78-9.44-2.31-11.88-1.43-2.28-3.69-3.39-6.89-3.39a12.59,12.59,0,0,0-4.73.9,13.85,13.85,0,0,0-4.1,2.54,17.1,17.1,0,0,0-3.29,4,20.55,20.55,0,0,0-2.17,5.06v26h-4V105.29h4v6.94a20.33,20.33,0,0,1,4.57-4.51,16.1,16.1,0,0,1,9.41-3,12.51,12.51,0,0,1,9.08,3.46,13.64,13.64,0,0,1,3.46,5.76c4-6.12,9.08-9.22,15.22-9.22,4.53,0,7.94,1.68,10.15,5s3.18,7.89,3.18,14.32Z"></path><path class="cls-4" d="M418.21,146.68a17,17,0,0,1-7.32-1.63,19.07,19.07,0,0,1-6-4.48,21.8,21.8,0,0,1-4.1-6.6,21.17,21.17,0,0,1-1.52-8,20.86,20.86,0,0,1,1.45-7.81,20,20,0,0,1,4-6.37,18.69,18.69,0,0,1,5.91-4.29,17.22,17.22,0,0,1,7.25-1.55,17.43,17.43,0,0,1,7.39,1.59,19,19,0,0,1,6,4.32,21.2,21.2,0,0,1,5.58,14.42v.83h-36a21.44,21.44,0,0,0,1.78,7.09,20,20,0,0,0,3.83,5.73,17.84,17.84,0,0,0,5.43,3.83,15.51,15.51,0,0,0,6.48,1.4,16.13,16.13,0,0,0,4.44-.61,17.52,17.52,0,0,0,4.06-1.7,15.12,15.12,0,0,0,3.33-2.62,12.23,12.23,0,0,0,2.28-3.34l1.44.38a12.62,12.62,0,0,1-2.39,3.76A16,16,0,0,1,427.8,144a19.17,19.17,0,0,1-4.55,2A17.9,17.9,0,0,1,418.21,146.68Zm17-21.09a21.55,21.55,0,0,0-1.67-7.28,19,19,0,0,0-3.76-5.72,17.07,17.07,0,0,0-5.34-3.76,16.33,16.33,0,0,0-13.05,0,17,17,0,0,0-5.35,3.79,18.5,18.5,0,0,0-3.68,5.77,22.25,22.25,0,0,0-1.59,7.2Z"></path><path class="cls-4" d="M418.21,147.94a18.27,18.27,0,0,1-7.86-1.75,20.47,20.47,0,0,1-6.43-4.77,23.33,23.33,0,0,1-4.33-7,23.13,23.13,0,0,1-.08-16.75,21.53,21.53,0,0,1,4.23-6.77,20.06,20.06,0,0,1,6.31-4.57,18.46,18.46,0,0,1,7.78-1.67,18.81,18.81,0,0,1,7.92,1.7,20.42,20.42,0,0,1,6.39,4.61,22.45,22.45,0,0,1,4.3,6.83,22.22,22.22,0,0,1,1.61,8.45v2.09H402.17a19.69,19.69,0,0,0,1.53,5.31,18.61,18.61,0,0,0,3.58,5.37,16.66,16.66,0,0,0,5,3.56,14.78,14.78,0,0,0,10.06.73,16.28,16.28,0,0,0,3.76-1.59,13.67,13.67,0,0,0,3.06-2.39,11.18,11.18,0,0,0,2-3l.44-1,3.86,1-.54,1.33a13.89,13.89,0,0,1-2.62,4.13,17.82,17.82,0,0,1-3.93,3.19,20.68,20.68,0,0,1-4.85,2.1A19.24,19.24,0,0,1,418.21,147.94Zm-16.07-23.61h31.68a19.76,19.76,0,0,0-1.45-5.52,17.76,17.76,0,0,0-3.51-5.34,15.89,15.89,0,0,0-4.95-3.49,15.1,15.1,0,0,0-12,0A15.55,15.55,0,0,0,407,113.5a17,17,0,0,0-3.43,5.37A21,21,0,0,0,402.14,124.33Z"></path><path class="cls-4" d="M462,146.68a16.6,16.6,0,0,1-7.58-1.75,19.57,19.57,0,0,1-6-4.62,21.18,21.18,0,0,1-3.94-6.53,20.37,20.37,0,0,1-1.41-7.43,22.14,22.14,0,0,1,1.37-7.77,20.48,20.48,0,0,1,3.83-6.49,18.76,18.76,0,0,1,5.8-4.47,16.06,16.06,0,0,1,7.28-1.67,15.83,15.83,0,0,1,5.12.8,19.31,19.31,0,0,1,4.44,2.12,18.9,18.9,0,0,1,3.67,3.11,25.07,25.07,0,0,1,2.85,3.75V90.55H479v52.34c0,1,.4,1.51,1.21,1.51v1.52a2.4,2.4,0,0,1-1-.15,2.76,2.76,0,0,1-1.28-1.18,3.32,3.32,0,0,1-.46-1.7v-5.16a20.63,20.63,0,0,1-3,3.6,20.4,20.4,0,0,1-3.71,2.84,17.9,17.9,0,0,1-4.21,1.86A15.87,15.87,0,0,1,462,146.68Zm0-1.52a14.17,14.17,0,0,0,4.93-1,20.41,20.41,0,0,0,4.93-2.61,16,16,0,0,0,3.83-3.83,8.86,8.86,0,0,0,1.71-4.63V118.92a14.54,14.54,0,0,0-2.58-4.44,20.91,20.91,0,0,0-3.94-3.64,20.09,20.09,0,0,0-4.7-2.46,14.12,14.12,0,0,0-4.86-.91,14.54,14.54,0,0,0-6.94,1.63,17.1,17.1,0,0,0-5.27,4.28,19,19,0,0,0-3.37,6.07,20.94,20.94,0,0,0-1.18,6.9,18.72,18.72,0,0,0,1.36,7.09,20.13,20.13,0,0,0,3.72,6,17.93,17.93,0,0,0,5.54,4.18A15.43,15.43,0,0,0,462,145.16Z"></path><path class="cls-4" d="M462,147.94a18,18,0,0,1-8.15-1.88,20.92,20.92,0,0,1-6.41-4.92,22.66,22.66,0,0,1-4.17-6.9,21.78,21.78,0,0,1-1.49-7.89,23.48,23.48,0,0,1,1.44-8.21,21.87,21.87,0,0,1,4.07-6.88,20.23,20.23,0,0,1,6.18-4.77,18.07,18.07,0,0,1,13.37-.94,20.73,20.73,0,0,1,4.72,2.26,20.52,20.52,0,0,1,3.93,3.32c.22.24.43.48.64.73V89.29h4.05v53.6a1.44,1.44,0,0,0,0,.24h1.13l.06,1.27v2.78h-1.26a3.36,3.36,0,0,1-1.56-.29,3.89,3.89,0,0,1-1.81-1.67,4.58,4.58,0,0,1-.63-2.33v-1.51c-.27.3-.56.58-.85.87a23.48,23.48,0,0,1-3.94,3,19.25,19.25,0,0,1-4.51,2A17.19,17.19,0,0,1,462,147.94Zm-.68-39.21a13.46,13.46,0,0,0-6.35,1.48,16.28,16.28,0,0,0-4.89,4,18,18,0,0,0-3.15,5.67,19.77,19.77,0,0,0-1.11,6.49,17.68,17.68,0,0,0,1.27,6.62,19.39,19.39,0,0,0,3.49,5.62,16.66,16.66,0,0,0,5.15,3.88A14.13,14.13,0,0,0,462,143.9a13.1,13.1,0,0,0,4.49-.91,19.65,19.65,0,0,0,4.64-2.46A15.16,15.16,0,0,0,474.7,137a7.56,7.56,0,0,0,1.48-4V119.14a13.3,13.3,0,0,0-2.28-3.85,20,20,0,0,0-3.7-3.42,19.34,19.34,0,0,0-4.41-2.31A13,13,0,0,0,461.36,108.73Z"></path><path class="cls-4" d="M491.62,96.39V90.55h1.52v5.84Zm0,49.53V106.56h1.52v39.36Z"></path><path class="cls-4" d="M494.4,147.18h-4V105.29h4Zm0-49.52h-4V89.29h4Z"></path><path class="cls-4" d="M503,126.05a21.57,21.57,0,0,1,1.44-7.93,19,19,0,0,1,10.05-10.62A18.07,18.07,0,0,1,522,106a17.15,17.15,0,0,1,8.91,2.31,14.74,14.74,0,0,1,5.88,6.49l-1.52.53a14.41,14.41,0,0,0-5.57-5.73,15.58,15.58,0,0,0-7.93-2.08,15.85,15.85,0,0,0-6.75,1.44,17.57,17.57,0,0,0-5.46,3.94,18.17,18.17,0,0,0-3.68,5.92,20.49,20.49,0,0,0,0,14.63,19.45,19.45,0,0,0,3.75,6.11,18.37,18.37,0,0,0,5.5,4.13,14.94,14.94,0,0,0,6.68,1.52,16.42,16.42,0,0,0,4.59-.68,19,19,0,0,0,4.24-1.82,13.66,13.66,0,0,0,3.3-2.66,7.86,7.86,0,0,0,1.82-3.11l1.52.46a11.45,11.45,0,0,1-2.16,3.68,14.74,14.74,0,0,1-3.53,2.95,18.37,18.37,0,0,1-4.51,2,18,18,0,0,1-5.05.72,17.25,17.25,0,0,1-7.35-1.63,19.23,19.23,0,0,1-6.07-4.44,21.48,21.48,0,0,1-4.1-6.56A21.16,21.16,0,0,1,503,126.05Z"></path><path class="cls-4" d="M522,147.94a18.5,18.5,0,0,1-7.89-1.75,20.32,20.32,0,0,1-6.46-4.73,22.91,22.91,0,0,1-4.34-6.94,22.43,22.43,0,0,1-1.61-8.47,23,23,0,0,1,1.53-8.39A20.29,20.29,0,0,1,514,106.35a19.38,19.38,0,0,1,8-1.66,18.38,18.38,0,0,1,9.55,2.49,15.87,15.87,0,0,1,6.38,7l.6,1.27-3.86,1.35-.51-1a13.22,13.22,0,0,0-5.1-5.23,14.26,14.26,0,0,0-7.29-1.92,14.82,14.82,0,0,0-6.22,1.32,16.43,16.43,0,0,0-5.07,3.67,16.88,16.88,0,0,0-3.42,5.5,19.31,19.31,0,0,0,0,13.72,18.24,18.24,0,0,0,3.51,5.72,17.08,17.08,0,0,0,5.12,3.85,14.21,14.21,0,0,0,10.35.76,18.12,18.12,0,0,0,4-1.7,12.31,12.31,0,0,0,3-2.41,6.72,6.72,0,0,0,1.55-2.61l.35-1.23,4,1.2-.44,1.24a12.3,12.3,0,0,1-2.4,4.09,16.16,16.16,0,0,1-3.82,3.21,19.78,19.78,0,0,1-4.82,2.11A19.26,19.26,0,0,1,522,147.94Z"></path><path class="cls-4" d="M546.68,96.39V90.55h1.52v5.84Zm0,49.53V106.56h1.52v39.36Z"></path><path class="cls-4" d="M549.46,147.18h-4V105.29h4Zm0-49.52h-4V89.29h4Z"></path><path class="cls-4" d="M591.35,145.92h-1.51V124q0-8.64-2.39-12.59c-1.6-2.63-4.16-3.94-7.7-3.94a16.21,16.21,0,0,0-5.65,1,19.18,19.18,0,0,0-5.12,2.84,19.87,19.87,0,0,0-4.1,4.33,18.13,18.13,0,0,0-2.57,5.38v24.88h-1.52V106.56h1.52v10.16a18.87,18.87,0,0,1,3.1-4.36,20.8,20.8,0,0,1,9-5.61,17.34,17.34,0,0,1,5.23-.8q6.08,0,8.88,4.36t2.8,13.69Z"></path><path class="cls-4" d="M592.62,147.18h-4V124c0-5.5-.74-9.52-2.2-11.93-1.36-2.25-3.53-3.34-6.62-3.34a14.9,14.9,0,0,0-5.21,1,17.84,17.84,0,0,0-4.79,2.65,18.7,18.7,0,0,0-3.83,4,17.27,17.27,0,0,0-2.35,4.85v26h-4V105.29h4v7.25q.43-.54.93-1.05a22,22,0,0,1,4.42-3.62,22.55,22.55,0,0,1,5.15-2.33,18.83,18.83,0,0,1,5.6-.85c4.49,0,7.83,1.66,9.94,4.94s3,7.85,3,14.37Z"></path><path class="cls-4" d="M619.72,146.68a17,17,0,0,1-7.32-1.63,19.07,19.07,0,0,1-6-4.48,22,22,0,0,1-4.1-6.6,21.92,21.92,0,0,1-.07-15.81,20.13,20.13,0,0,1,4-6.37,18.74,18.74,0,0,1,5.92-4.29,17.18,17.18,0,0,1,7.24-1.55,17.43,17.43,0,0,1,7.39,1.59,19.17,19.17,0,0,1,6,4.32,21.15,21.15,0,0,1,4,6.45,20.75,20.75,0,0,1,1.52,8v.83h-36a21.45,21.45,0,0,0,1.79,7.09,19.63,19.63,0,0,0,3.83,5.73,17.67,17.67,0,0,0,5.42,3.83,15.51,15.51,0,0,0,6.48,1.4,16.13,16.13,0,0,0,4.44-.61,17.52,17.52,0,0,0,4.06-1.7,15.42,15.42,0,0,0,3.34-2.62,12.19,12.19,0,0,0,2.27-3.34l1.44.38A12.42,12.42,0,0,1,633,141a15.74,15.74,0,0,1-3.64,2.95,19.17,19.17,0,0,1-4.55,2A17.85,17.85,0,0,1,619.72,146.68Zm17-21.09a21.31,21.31,0,0,0-1.67-7.28,18.76,18.76,0,0,0-3.76-5.72,17.07,17.07,0,0,0-5.34-3.76,16.33,16.33,0,0,0-13.05,0,17,17,0,0,0-5.34,3.79,18.15,18.15,0,0,0-3.68,5.77,22.52,22.52,0,0,0-1.6,7.2Z"></path><path class="cls-4" d="M619.72,147.94a18.27,18.27,0,0,1-7.86-1.75,20.47,20.47,0,0,1-6.43-4.77,23.33,23.33,0,0,1-4.33-7A23.13,23.13,0,0,1,601,117.7a21.44,21.44,0,0,1,4.24-6.77,19.84,19.84,0,0,1,6.31-4.57,18.42,18.42,0,0,1,7.77-1.67,18.78,18.78,0,0,1,7.92,1.7,20.42,20.42,0,0,1,6.39,4.61,22.45,22.45,0,0,1,4.3,6.83,22.22,22.22,0,0,1,1.61,8.45v2.09H603.69a20.12,20.12,0,0,0,1.52,5.32,18.69,18.69,0,0,0,3.58,5.36,16.66,16.66,0,0,0,5,3.56,14.78,14.78,0,0,0,10.06.73,16.28,16.28,0,0,0,3.76-1.59,13.45,13.45,0,0,0,3.06-2.39,11,11,0,0,0,2-3l.45-1,3.86,1-.55,1.33a13.89,13.89,0,0,1-2.62,4.13,17.59,17.59,0,0,1-3.93,3.19,20.79,20.79,0,0,1-4.84,2.1A19.31,19.31,0,0,1,619.72,147.94Zm-16.07-23.61h31.68a19.76,19.76,0,0,0-1.45-5.52,17.92,17.92,0,0,0-3.5-5.34,16,16,0,0,0-5-3.49,15.1,15.1,0,0,0-12,0,15.66,15.66,0,0,0-4.95,3.52,17,17,0,0,0-3.42,5.37A20.65,20.65,0,0,0,603.65,124.33Z"></path><path class="cls-10" d="M166.93,17.83h-6.88V35.28h-.51V17.83h-6.87v-.5h14.26Z"></path><path class="cls-10" d="M180.43,35.28h-.51V28q0-5.5-3.64-5.51a4.87,4.87,0,0,0-1.79.35,6.42,6.42,0,0,0-1.64,1,6.84,6.84,0,0,0-1.3,1.43,5.85,5.85,0,0,0-.81,1.78v8.3h-.5V16.82h.5v8.72a7.13,7.13,0,0,1,1-1.48,6.7,6.7,0,0,1,1.32-1.13,6,6,0,0,1,3.2-1,3.54,3.54,0,0,1,3.1,1.52,7.82,7.82,0,0,1,1.07,4.5Z"></path><path class="cls-10" d="M190.49,35.53a5.68,5.68,0,0,1-2.44-.54,6.3,6.3,0,0,1-2-1.5,7.37,7.37,0,0,1-1.37-2.2,7.15,7.15,0,0,1-.5-2.66,7,7,0,0,1,.48-2.61A6.62,6.62,0,0,1,186,23.9a6.19,6.19,0,0,1,2-1.43,5.76,5.76,0,0,1,2.41-.52,5.89,5.89,0,0,1,2.47.53,6.38,6.38,0,0,1,2,1.45,6.92,6.92,0,0,1,1.36,2.14,7.11,7.11,0,0,1,.5,2.66V29h-12a7.13,7.13,0,0,0,.6,2.36,6.7,6.7,0,0,0,1.27,1.91,6.2,6.2,0,0,0,1.81,1.28,5.18,5.18,0,0,0,2.16.46,5.23,5.23,0,0,0,1.48-.2,5.37,5.37,0,0,0,1.35-.57,4.6,4.6,0,0,0,1.12-.87,4.3,4.3,0,0,0,.76-1.11l.48.12a4.41,4.41,0,0,1-.8,1.26,5.83,5.83,0,0,1-1.21,1,6.47,6.47,0,0,1-1.52.66A6,6,0,0,1,190.49,35.53Zm5.66-7a7.38,7.38,0,0,0-.55-2.43,6.36,6.36,0,0,0-1.26-1.9,5.71,5.71,0,0,0-1.78-1.26,5.48,5.48,0,0,0-4.35,0,5.74,5.74,0,0,0-1.78,1.27,6.32,6.32,0,0,0-1.23,1.92,7.51,7.51,0,0,0-.53,2.4Z"></path><path class="cls-10" d="M215.36,35.4a7.4,7.4,0,0,1-3.4-.78,8.85,8.85,0,0,1-2.64-2,9.22,9.22,0,0,1-1.72-2.91,9.68,9.68,0,0,1-.6-3.36,9.37,9.37,0,0,1,.64-3.44,9.61,9.61,0,0,1,1.77-2.9,8.32,8.32,0,0,1,2.66-2,7.59,7.59,0,0,1,6.68.05,8.55,8.55,0,0,1,2.64,2.08,9.54,9.54,0,0,1-.1,12.58,8.78,8.78,0,0,1-2.64,2A7.45,7.45,0,0,1,215.36,35.4Zm-7.86-9.1a8.94,8.94,0,0,0,.6,3.23,9.14,9.14,0,0,0,1.63,2.75,7.7,7.7,0,0,0,2.47,1.91,7.11,7.11,0,0,0,3.16.71,6.86,6.86,0,0,0,3.2-.75,8,8,0,0,0,2.48-2,9.29,9.29,0,0,0,1.59-2.75A9,9,0,0,0,221,20.32a8.28,8.28,0,0,0-2.49-1.91,7.23,7.23,0,0,0-6.29,0,8.11,8.11,0,0,0-2.49,2,9.06,9.06,0,0,0-1.61,2.76A8.93,8.93,0,0,0,207.5,26.3Z"></path><path class="cls-10" d="M233.26,22.66A5.23,5.23,0,0,0,230,23.87,6,6,0,0,0,228.16,27v8.3h-.51V22.16h.51v3.38A6.33,6.33,0,0,1,230,23.26a4.84,4.84,0,0,1,2.44-1.05l.47,0h.36Z"></path><path class="cls-10" d="M236.5,18.77V16.82H237v1.95Zm0,16.51V22.16H237V35.28Z"></path><path class="cls-10" d="M247.24,35.53a5.49,5.49,0,0,1-2.52-.58,6.49,6.49,0,0,1-2-1.54,7,7,0,0,1-1.32-2.18,6.86,6.86,0,0,1-.47-2.48,7.35,7.35,0,0,1,.45-2.54A6.88,6.88,0,0,1,242.62,24a6.23,6.23,0,0,1,1.93-1.52A5.38,5.38,0,0,1,247,22a5.19,5.19,0,0,1,1.65.26,5.63,5.63,0,0,1,1.44.69,6.78,6.78,0,0,1,1.23,1,11.72,11.72,0,0,1,1,1.27V22.16h.5V35.83a5,5,0,0,1-.48,2.25,4.7,4.7,0,0,1-1.29,1.6,5.42,5.42,0,0,1-1.86.93,7.82,7.82,0,0,1-2.16.3,6.56,6.56,0,0,1-3.64-.86,6,6,0,0,1-2-2.27l.48-.15a4.76,4.76,0,0,0,2.22,2.13,7.05,7.05,0,0,0,3,.65,7.15,7.15,0,0,0,2-.29,5.15,5.15,0,0,0,1.68-.87A4.3,4.3,0,0,0,252,37.82a4.45,4.45,0,0,0,.42-2V32.55a7,7,0,0,1-2.24,2.15,6.39,6.39,0,0,1-1.4.61A5.09,5.09,0,0,1,247.24,35.53Zm0-.51a4.9,4.9,0,0,0,1.84-.36,6.39,6.39,0,0,0,1.6-.95,6,6,0,0,0,1.18-1.29,3,3,0,0,0,.52-1.42V26.28a5.3,5.3,0,0,0-.88-1.53,6.25,6.25,0,0,0-1.27-1.2,5.84,5.84,0,0,0-1.55-.8,5.09,5.09,0,0,0-1.66-.29,4.84,4.84,0,0,0-2.38.57,5.75,5.75,0,0,0-1.74,1.46,6.52,6.52,0,0,0-1.09,2,7,7,0,0,0-.38,2.23,6.32,6.32,0,0,0,.45,2.37,7.07,7.07,0,0,0,1.24,2A6.17,6.17,0,0,0,245,34.51,5.17,5.17,0,0,0,247.24,35Z"></path><path class="cls-10" d="M257.71,18.77V16.82h.51v1.95Zm0,16.51V22.16h.51V35.28Z"></path><path class="cls-10" d="M273.23,35.28h-.5V28a8.44,8.44,0,0,0-.8-4.2,2.78,2.78,0,0,0-2.56-1.31,5.35,5.35,0,0,0-1.89.34,6.33,6.33,0,0,0-1.7.95,6.26,6.26,0,0,0-1.37,1.44,6.16,6.16,0,0,0-.86,1.79v8.3h-.5V22.16h.5v3.38A6.86,6.86,0,0,1,266,23a7,7,0,0,1,1.62-.73,5.75,5.75,0,0,1,1.74-.27,3.27,3.27,0,0,1,3,1.46,8.68,8.68,0,0,1,.93,4.56Z"></path><path class="cls-10" d="M281,35.53a4.43,4.43,0,0,1-1.67-.32,4.1,4.1,0,0,1-1.35-.86,4,4,0,0,1-.9-1.27,3.78,3.78,0,0,1-.33-1.57,3,3,0,0,1,.39-1.52,3.77,3.77,0,0,1,1.12-1.17,5.55,5.55,0,0,1,1.72-.77,7.88,7.88,0,0,1,2.18-.28,13.81,13.81,0,0,1,2.3.19,10.71,10.71,0,0,1,2.1.54V27a5.58,5.58,0,0,0-.3-1.86,4.17,4.17,0,0,0-.87-1.44,3.94,3.94,0,0,0-1.37-.92,4.56,4.56,0,0,0-1.76-.33,5.64,5.64,0,0,0-2,.42,9.39,9.39,0,0,0-2.2,1.2l-.31-.41A8.41,8.41,0,0,1,282.28,22a5.3,5.3,0,0,1,2,.36,4,4,0,0,1,1.51,1,4.56,4.56,0,0,1,1,1.59,6.25,6.25,0,0,1,.34,2.1v7.26c0,.33.13.5.4.5v.51a.78.78,0,0,1-.76-.42,1.2,1.2,0,0,1-.15-.59V33.05a6,6,0,0,1-2.38,1.83A7.76,7.76,0,0,1,281,35.53Zm0-.51a7.5,7.5,0,0,0,3.1-.63,4.62,4.62,0,0,0,2.08-1.69,1.83,1.83,0,0,0,.38-1v-2.6a12.12,12.12,0,0,0-4.4-.79,8.29,8.29,0,0,0-2,.23,4.81,4.81,0,0,0-1.54.66,3.34,3.34,0,0,0-1,1,2.62,2.62,0,0,0-.35,1.33,3.22,3.22,0,0,0,.29,1.38,3.55,3.55,0,0,0,.79,1.12,3.76,3.76,0,0,0,1.19.75A4,4,0,0,0,281,35Z"></path><path class="cls-10" d="M291.94,16.82h.51V33.33a1.51,1.51,0,0,0,.45,1.16,1.68,1.68,0,0,0,1.22.43,4.46,4.46,0,0,0,.66-.06,6.15,6.15,0,0,0,.73-.16l.17.4a4.63,4.63,0,0,1-.87.21,5.23,5.23,0,0,1-.87.09,1.92,1.92,0,0,1-1.44-.57,2.06,2.06,0,0,1-.56-1.5Z"></path></svg> 